Coordinates
version=1
nRows=24
nColumns=38
inDegrees=no

Units are S.I. units (second, meters, Newtons, ...)
If the header above contains a line with 'inDegrees', this indicates whether rotational values are in degrees (yes) or radians (no).

endheader
time	pelvis_tilt	pelvis_list	pelvis_rotation	pelvis_tx	pelvis_ty	pelvis_tz	hip_flexion_r	hip_adduction_r	hip_rotation_r	knee_angle_r	ankle_angle_r	subtalar_angle_r	mtp_angle_r	hip_flexion_l	hip_adduction_l	hip_rotation_l	knee_angle_l	ankle_angle_l	subtalar_angle_l	mtp_angle_l	lumbar_extension	lumbar_bending	lumbar_rotation	arm_flex_r	arm_add_r	arm_rot_r	elbow_flex_r	pro_sup_r	wrist_flex_r	wrist_dev_r	arm_flex_l	arm_add_l	arm_rot_l	elbow_flex_l	pro_sup_l	wrist_flex_l	wrist_dev_l
95	-2.93428	1.2539	-1.49271	0.807477	-0.597417	1.10535	-0.299397	-0.0648614	-0.149064	0.231467	-0.429594	0	0	-0.311263	0.0327842	0.123015	0.243738	-0.297613	0	0	-0.463988	0.157069	-0.0672959	0.137845	-0.412655	0.0715075	1.8277	1.5708	0	0	0.222738	-0.268153	0.417812	1.48767	1.5708	0	0
95.01	-2.93127	1.25223	-1.49258	0.807893	-0.597481	1.10546	-0.303236	-0.0638175	-0.151054	0.228434	-0.43224	0	0	-0.312634	0.0319945	0.125794	0.244221	-0.298445	0	0	-0.468229	0.156535	-0.0700899	0.128344	-0.411605	0.073875	1.82363	1.5708	0	0	0.215224	-0.263942	0.412921	1.46956	1.5708	0	0
95.02	-2.928	1.24994	-1.49297	0.808283	-0.597463	1.10556	-0.308003	-0.0629042	-0.153656	0.224978	-0.433895	0	0	-0.314965	0.0312971	0.127772	0.244464	-0.298691	0	0	-0.472621	0.155728	-0.0726856	0.119835	-0.410397	0.0775023	1.81439	1.5708	0	0	0.20833	-0.25788	0.407005	1.44684	1.5708	0	0
95.03	-2.92469	1.2469	-1.49339	0.808651	-0.597471	1.10571	-0.313798	-0.0618762	-0.156311	0.220932	-0.43519	0	0	-0.318167	0.0305672	0.129438	0.244578	-0.298663	0	0	-0.478027	0.155031	-0.0753816	0.112742	-0.409013	0.0823929	1.80031	1.5708	0	0	0.202311	-0.250614	0.399575	1.42089	1.5708	0	0
95.04	-2.92143	1.24269	-1.49356	0.809017	-0.597553	1.10593	-0.321051	-0.0605664	-0.158492	0.216472	-0.436359	0	0	-0.32257	0.0296758	0.131087	0.244743	-0.298444	0	0	-0.485002	0.154352	-0.0783018	0.107226	-0.407699	0.0887652	1.78139	1.5708	0	0	0.197506	-0.242425	0.391252	1.39208	1.5708	0	0
95.05	-2.91802	1.23712	-1.49349	0.809394	-0.597764	1.10623	-0.330062	-0.0589309	-0.16044	0.211446	-0.437742	0	0	-0.328328	0.0286071	0.133075	0.244834	-0.298193	0	0	-0.493591	0.153457	-0.0823379	0.104071	-0.406597	0.0975956	1.75712	1.5708	0	0	0.193637	-0.233835	0.381318	1.36044	1.5708	0	0
95.06	-2.99116	1.40089	-1.56315	0.819405	-0.568499	1.09193	-0.133207	-0.0755718	-0.0146306	0.250839	-0.391076	0	0	-0.20284	0.0362227	-0.0990434	0.202668	-0.311508	0	0	-0.251773	0.134723	0.0279912	0.0107645	-0.42592	0.127902	1.6881	1.5708	0	0	0.0521749	-0.110361	0.211107	1.20293	1.5708	0	0
95.07	-2.988	1.36653	-1.56041	0.819898	-0.570355	1.09415	-0.176963	-0.0738099	-0.0205817	0.236237	-0.398579	0	0	-0.240294	0.0341131	-0.0979343	0.199407	-0.312927	0	0	-0.304909	0.133518	0.0301336	0.0332613	-0.404288	0.227604	1.74512	0.434595	0	0	0.103818	-0.174196	0.357407	1.21759	1.5708	0	0
95.08	-2.98205	1.34566	-1.55707	0.819227	-0.572376	1.09568	-0.203814	-0.0735647	-0.03184	0.227213	-0.404167	0	0	-0.260763	0.033885	-0.0870681	0.199824	-0.312735	0	0	-0.338288	0.138893	0.0196482	0.0450311	-0.38862	0.226585	1.70871	0.413324	0	0	0.110738	-0.163587	0.341865	1.18121	1.5708	0	0
95.09	-2.99037	1.32546	-1.55238	0.820548	-0.571567	1.09693	-0.232362	-0.0696626	-0.0248881	0.213528	-0.413335	0	0	-0.288057	0.0298687	-0.102599	0.19183	-0.31703	0	0	-0.365159	0.139077	0.018041	0.0532907	-0.381816	0.237041	1.66672	0.381552	0	0	0.107608	-0.153659	0.319141	1.14639	1.5708	0	0
95.1	-2.91422	1.16508	-1.47669	0.811117	-0.601723	1.11001	-0.423333	-0.0412472	-0.178659	0.18033	-0.455785	0	0	-0.406232	0.0122657	0.136254	0.239565	-0.296056	0	0	-0.590894	0.178841	-0.108214	0.150524	-0.360514	0.244989	1.64836	0.343534	0	0	0.189624	-0.186953	0.303925	1.17865	1.5708	0	0
95.11	-2.99573	1.30317	-1.54805	0.82199	-0.571707	1.09839	-0.259001	-0.0661882	-0.0222514	0.209734	-0.413431	0	0	-0.315461	0.0260931	-0.112041	0.186287	-0.319563	0	0	-0.405457	0.131021	0.0153549	0.0672914	-0.379836	0.248556	1.51551	1.02696	0	0	0.112743	-0.130397	0.276051	1.06509	1.5708	0	0
95.12	-2.96275	1.30454	-1.58307	0.823621	-0.570712	1.09626	-0.292115	-0.0715462	-0.0127773	0.122005	-0.456102	0	0	-0.31348	0.0333681	-0.120173	0.191194	-0.311415	0	0	-0.404522	0.116668	0.0131134	0.0680861	-0.377961	0.271848	1.51809	0.257569	0	0	0.11292	-0.12266	0.25582	1.01944	1.5708	0	0
95.13	-2.84906	1.33063	-1.70556	0.82715	-0.568469	1.08898	-0.317364	-0.0949416	-0.0225363	0	-0.494508	0	0	-0.281028	0.0606724	-0.127786	0.201026	-0.301591	0	0	-0.373302	0.0750326	0.0166337	0.0620657	-0.360328	0.267404	1.39792	0.974844	0	0	0.107171	-0.121494	0.234126	0.980616	1.5708	0	0
95.14	-2.79788	1.33474	-1.76227	0.829261	-0.568243	1.08598	-0.324149	-0.105667	-0.0295449	0	-0.523077	0	0	-0.272523	0.0721713	-0.133387	0.206837	-0.295103	0	0	-0.374607	0.0547593	0.0203804	0.0650507	-0.35363	0.273924	1.33917	0.962261	0	0	0.111015	-0.113043	0.207918	0.938618	1.5708	0	0
95.15	-2.79956	1.32526	-1.76026	0.830086	-0.568826	1.08628	-0.334766	-0.106243	-0.0317429	0	-0.540238	0	0	-0.281162	0.0723473	-0.135963	0.210049	-0.2908	0	0	-0.396346	0.0478618	0.0190997	0.07608	-0.349631	0.283666	1.27551	0.948697	0	0	0.119875	-0.0998208	0.174548	0.89331	1.5708	0	0
95.16	-2.81726	1.30738	-1.74142	0.830895	-0.569886	1.08763	-0.35419	-0.103764	-0.0310937	0	-0.550936	0	0	-0.30031	0.0694033	-0.13827	0.210767	-0.288418	0	0	-0.431256	0.0441211	0.014749	0.0933229	-0.346162	0.298172	1.21192	0.933213	0	0	0.128977	-0.0866275	0.132083	0.854357	1.5708	0	0
95.17	-2.83135	1.28793	-1.72697	0.831952	-0.571068	1.08888	-0.376754	-0.101575	-0.0309265	0	-0.557566	0	0	-0.321347	0.0672763	-0.140407	0.210364	-0.287435	0	0	-0.470044	0.0390051	0.0093423	0.111815	-0.342096	0.314559	1.15088	0.917097	0	0	0.136721	-0.0756307	0.0836913	0.822955	1.5708	0	0
95.18	-2.8258	1.31866	-1.73661	0.831559	-0.568602	1.08797	-0.344217	-0.0999912	-0.0206355	0	-0.566652	0	0	-0.291557	0.0669035	-0.138102	0.205668	-0.290392	0	0	-0.415994	0.0894796	0.000113124	0.12316	-0.350581	0.348922	1.06662	0.890546	0	0	0.24271	0.0388071	-0.128519	0.499142	1.5708	0	0
95.19	-2.83696	1.30516	-1.72594	0.832329	-0.569373	1.08851	-0.359674	-0.0987497	-0.0205334	0	-0.573718	0	0	-0.305777	0.0652852	-0.141637	0.20681	-0.289298	0	0	-0.447372	0.0888125	-0.0334555	0.170609	-0.347863	0.417696	1.05701	0.0244297	0	0	0.244252	0.0563637	-0.304428	0.48026	1.5708	0	0
95.2	-2.84008	1.29411	-1.72196	0.833344	-0.569998	1.08925	-0.372252	-0.0982975	-0.0217232	0	-0.57481	0	0	-0.317232	0.0648874	-0.141002	0.206803	-0.289714	0	0	-0.48422	0.0717553	-0.0501045	0.169016	-0.304629	0.20044	0.971884	0.0263436	0	0	0.244097	0.0562017	-0.401668	0.488883	1.5708	0	0
95.21	-2.85808	1.26528	-1.70351	0.834316	-0.572021	1.09093	-0.404359	-0.0958695	-0.0243287	0	-0.57699	0	0	-0.348222	0.0623263	-0.144563	0.205787	-0.290317	0	0	-0.542156	0.0772884	-0.0648042	0.229171	-0.329612	0.469379	0.939232	1.25157e-10	0	0	0.252104	0.0559104	-0.476237	0.486749	1.5708	0	0
95.22	-2.86593	1.24747	-1.69507	0.835313	-0.573232	1.092	-0.42425	-0.0942084	-0.0265049	0	-0.5784	0	0	-0.367452	0.0610421	-0.143847	0.204461	-0.291257	0	0	-0.585695	0.0717114	-0.0791082	0.255472	-0.319328	0.492269	0.881276	0	0	0	0.254355	0.0538689	-0.555396	0.494422	1.5708	0	0
95.23	-2.87161	1.23138	-1.68871	0.836305	-0.574293	1.09294	-0.442362	-0.0928013	-0.0285953	0	-0.579429	0	0	-0.384953	0.0601183	-0.14178	0.202894	-0.29209	0	0	-0.624097	0.0663104	-0.088067	0.273366	-0.310413	0.504404	0.829624	0	0	0	0.257499	0.0471463	-0.609419	0.495096	1.5708	0	0
